<svg id="Capa_1" enable-background="new 0 0 512.01 512.01" height="512" viewBox="0 0 512.01 512.01" width="512" xmlns="http://www.w3.org/2000/svg"><g><path d="m256.005 136.015c-20.074 14.65-46.609 20.891-73.01 14.66l-130.932-26.275c6.987 37.362 19.182 84.083 39.214 110.787 10.844 14.458 14.187 45.393 9.413 87.103-2.163 18.896-5.57 36.34-8.183 48.161l15.489 5.137c.646.214 64.449 21.058 148.008 21.059 83.559 0 147.362-20.844 147.997-21.054l15.5-5.141c-2.613-11.822-6.021-29.267-8.183-48.162-4.773-41.71-1.431-72.645 9.412-87.102 20.033-26.705 32.229-73.426 39.215-110.788l-130.932 26.275c-26.424 6.237-52.968-.035-73.008-14.66zm14.93 218.471c-.884 8.51-8.449 14.259-16.41 13.45-8.484-.899-14.264-8.389-13.45-16.4.93-8.981 9.395-14.989 17.86-13.23 6.943 1.311 12.685 7.79 12 16.18zm91.551-67.672c-3.027 24.225-24.447 41.443-48.726 39.234l-57.756-5.25-57.755 5.25c-24.314 2.212-45.704-15.044-48.727-39.234-1.027-8.221 4.804-15.717 13.023-16.744 8.228-1.027 15.717 4.803 16.744 13.023 1.009 8.07 8.146 13.825 16.243 13.078l45.471-4.134v-10.302c0-8.284 6.716-15 15-15s15 6.716 15 15v10.302l45.472 4.134c8.109.738 15.233-5.009 16.242-13.078 1.027-8.22 8.521-14.05 16.744-13.023 8.222 1.027 14.053 8.523 13.025 16.744zm-25.365-105.668c1.027-8.221 8.519-14.047 16.744-13.023 8.221 1.027 14.052 8.524 13.023 16.744l-4.402 21.947c-2.85 22.808-22.013 39.425-44.54 39.425-2.983 0 .765.26-61.941-5.441-62.54 5.685-58.952 5.441-61.94 5.441-22.528 0-41.691-16.617-44.541-39.425l-4.402-21.947c-1.028-8.22 4.803-15.717 13.023-16.744 8.211-1.026 15.717 4.803 16.744 13.023l4.402 21.947c1.009 8.07 8.146 13.832 16.243 13.078l45.471-4.134v-21.032c0-8.284 6.716-15 15-15s15 6.716 15 15v21.032l45.472 4.134c8.109.736 15.233-5.01 16.242-13.078z"/><path d="m46.864 92.61c2.833.785-9.277-1.711 142.571 28.755 18.573 4.527 37.479-.086 51.57-11.66v-109.7h-226c-9.535 0-16.642 8.786-14.677 18.098l6.642 31.468c4.092 20.727 19.356 37.329 39.894 43.039z"/><path d="m239.005 426.381v85.625h34v-85.625c-11.314.348-22.37.358-34 0z"/><path d="m428.211 399.17-14.753 4.893c-2.233.744-46.339 15.221-110.452 20.596v87.347h138.68c9.635 0 16.78-8.973 14.617-18.365-8.961-38.914-21.118-75.047-28.092-94.471z"/><path d="m497.005.005h-226v109.7c14.185 11.651 33.113 16.158 51.57 11.66 151.498-30.396 140.172-27.997 144.055-29.193 18.483-5.574 34.204-21.299 38.41-42.602l6.642-31.468c1.969-9.329-5.162-18.097-14.677-18.097z"/><path d="m209.005 424.658c-64.114-5.376-108.222-19.853-110.473-20.603l-14.732-4.886c-6.975 19.424-19.132 55.558-28.092 94.471-2.162 9.39 4.98 18.365 14.617 18.365h138.68z"/></g></svg>