<?xml version="1.0" encoding="iso-8859-1"?>
<!-- Generator: Adobe Illustrator 16.0.0, SVG Export Plug-In . SVG Version: 6.00 Build 0)  -->
<!DOCTYPE svg PUBLIC "-//W3C//DTD SVG 1.1//EN" "http://www.w3.org/Graphics/SVG/1.1/DTD/svg11.dtd">
<svg version="1.1" id="Capa_1" xmlns="http://www.w3.org/2000/svg" xmlns:xlink="http://www.w3.org/1999/xlink" x="0px" y="0px"
	 width="198.358px" height="198.358px" viewBox="0 0 198.358 198.358" style="enable-background:new 0 0 198.358 198.358;"
	 xml:space="preserve">
<g>
	<g>
		<path d="M99.107,19.882c-8.351,0-15.12,6.681-15.12,14.917c0,8.241,6.77,14.922,15.12,14.922c8.347,0,15.117-6.681,15.117-14.922
			C114.224,26.563,107.454,19.882,99.107,19.882z"/>
		<path d="M167.099,56.256c-0.998-0.9-2.244-1.354-3.493-1.38c-1.244-4.806-4.39-14.67-11.333-25.81
			C140.412,10.046,120.023,0,99.078,0C71.129,0,54.699,15.98,46.084,29.066C39.202,39.52,35.996,49.871,34.737,54.874
			c-1.239,0.027-2.473,0.477-3.469,1.366c-2.219,1.985-2.412,5.393-0.43,7.612c0.438,0.49,10.893,11.992,26.487,12.151
			c0.111,0,0.232,0.001,0.343,0.001c8.106,0,15.967-3.022,23.37-9v123.269c0,4.467,3.641,8.085,8.106,8.085
			c4.465,0,8.104-3.618,8.104-8.085v-61.098h3.803v61.098c0,4.467,3.639,8.085,8.104,8.085c4.465,0,8.104-3.618,8.104-8.085V66.874
			c7.406,6.059,15.312,9.119,23.475,9.119c0.11,0,0.204-0.001,0.314-0.001c15.595-0.159,26.04-11.661,26.477-12.151
			C169.505,61.629,169.304,58.243,167.099,56.256z M140.824,65.212c-0.038,0.001-0.075,0.001-0.115,0.001
			c-7.377,0-14.747-3.898-21.903-11.59c-1.17-1.257-2.849-1.678-4.388-1.678c-0.004,0-23.198-0.025-31.072-0.025
			c-1.443,0-2.766,0.616-3.789,1.715c-7.159,7.691-14.529,11.591-21.906,11.591c-0.038,0-0.078,0-0.118-0.002
			c-8.815-0.049-15.629-5.676-17.865-7.776c0.88-3.814,3.83-14.652,10.925-25.43C62.037,14.635,78.38,5.667,99.177,5.358
			c20.799,0.31,37.142,9.274,48.585,26.658c7.093,10.773,10.043,21.605,10.924,25.426C156.425,59.562,149.623,65.163,140.824,65.212
			z"/>
	</g>
</g>
<g>
</g>
<g>
</g>
<g>
</g>
<g>
</g>
<g>
</g>
<g>
</g>
<g>
</g>
<g>
</g>
<g>
</g>
<g>
</g>
<g>
</g>
<g>
</g>
<g>
</g>
<g>
</g>
<g>
</g>
</svg>
