<?xml version="1.0" encoding="iso-8859-1"?>
<!-- Generator: Adobe Illustrator 17.1.0, SVG Export Plug-In . SVG Version: 6.00 Build 0)  -->
<!DOCTYPE svg PUBLIC "-//W3C//DTD SVG 1.1//EN" "http://www.w3.org/Graphics/SVG/1.1/DTD/svg11.dtd">
<svg version="1.1" id="Capa_1" xmlns="http://www.w3.org/2000/svg" xmlns:xlink="http://www.w3.org/1999/xlink" x="0px" y="0px"
	 viewBox="0 0 82.82 82.82" style="enable-background:new 0 0 82.82 82.82;" xml:space="preserve">
<g>
	<path d="M67.736,0h-1.917c-2.757,0-5,2.243-5,5v35.48L36.494,55.151c-1.252,0.755-2.196,2.428-2.196,3.89v15.947v0.883v1.367
		c0,1.608,1.248,3.043,2.842,3.268l16.31,2.284c0.146,0.021,0.294,0.03,0.443,0.03c1.416,0,2.842-0.916,3.392-2.178l8.104-18.616
		c0.174-0.399,0.278-0.858,0.329-1.336l4.822-2.908c1.252-0.756,2.196-2.428,2.196-3.89V51.22V37.063V5
		C72.736,2.243,70.493,0,67.736,0z M55.831,66.654l-2.8,7.222c-0.221,0.57-0.943,1.017-1.59,0.898l-7.046-1.223L55.831,66.654z"/>
	<path d="M20.92,56.619c-5.975,0-10.836,4.861-10.836,10.836s4.861,10.836,10.836,10.836s10.836-4.861,10.836-10.836
		S26.895,56.619,20.92,56.619z"/>
</g>
<g>
</g>
<g>
</g>
<g>
</g>
<g>
</g>
<g>
</g>
<g>
</g>
<g>
</g>
<g>
</g>
<g>
</g>
<g>
</g>
<g>
</g>
<g>
</g>
<g>
</g>
<g>
</g>
<g>
</g>
</svg>
